<svg xmlns="http://www.w3.org/2000/svg" width="90" height="35" viewBox="0 0 90 35">
  <title>logo-mezzo</title>
  <g>
    <polygon points="52.89 12.923 51.121 12.923 51.121 11.154 49.352 11.154 49.352 9.385 47.583 9.385 47.583 7.615 51.121 7.615 51.121 0.538 38.736 0.538 38.736 7.615 42.275 7.615 42.275 9.385 40.506 9.385 40.506 11.154 38.736 11.154 38.736 12.923 36.967 12.923 36.967 11.154 33.429 11.154 33.429 12.923 33.429 20 36.967 20 38.736 20 40.506 20 44.044 20 44.044 12.923 45.813 12.923 45.813 20 49.352 20 51.121 20 56.429 20 56.429 18.231 56.429 12.923 56.429 11.154 52.89 11.154 52.89 12.923" fill="#4ffa94"/>
    <g>
      <polygon points="7.127 27.908 5.448 27.908 5.448 29.588 7.127 29.588 7.127 34.625 8.807 34.625 8.807 26.229 7.127 26.229 7.127 27.908" fill="#4ffa94"/>
      <rect x="3.769" y="29.588" width="1.68" height="1.679" fill="#4ffa94"/>
      <polygon points="2.09 29.588 3.769 29.588 3.769 27.908 2.09 27.908 2.09 26.229 0.411 26.229 0.411 34.625 3.769 34.625 3.769 31.267 2.09 31.267 2.09 29.588" fill="#4ffa94"/>
      <polygon points="10.491 34.625 18.887 34.625 18.887 32.946 13.849 32.946 13.849 31.267 17.207 31.267 17.207 29.588 13.849 29.588 13.849 27.908 18.887 27.908 18.887 26.229 10.491 26.229 10.491 34.625" fill="#4ffa94"/>
      <polygon points="23.929 32.946 23.929 31.267 22.25 31.267 22.25 32.946 20.571 32.946 20.571 34.625 28.967 34.625 28.967 31.267 25.608 31.267 25.608 32.946 23.929 32.946" fill="#4ffa94"/>
      <polygon points="20.571 29.588 23.929 29.588 23.929 27.908 25.608 27.908 25.608 29.588 27.287 29.588 27.287 27.908 28.967 27.908 28.967 26.229 20.571 26.229 20.571 29.588" fill="#4ffa94"/>
      <rect x="23.929" y="29.588" width="1.68" height="1.679" fill="#4ffa94"/>
      <rect x="34.009" y="29.588" width="1.68" height="1.679" fill="#4ffa94"/>
      <polygon points="34.009 32.946 34.009 31.267 32.33 31.267 32.33 32.946 30.651 32.946 30.651 34.625 39.047 34.625 39.047 31.267 35.688 31.267 35.688 32.946 34.009 32.946" fill="#4ffa94"/>
      <polygon points="30.651 29.588 34.009 29.588 34.009 27.908 35.688 27.908 35.688 29.588 37.367 29.588 37.367 27.908 39.047 27.908 39.047 26.229 30.651 26.229 30.651 29.588" fill="#4ffa94"/>
      <polygon points="44.089 27.908 47.447 27.908 47.447 26.229 42.41 26.229 42.41 27.908 40.731 27.908 40.731 32.946 42.41 32.946 42.41 34.625 47.447 34.625 47.447 32.946 44.089 32.946 44.089 27.908" fill="#4ffa94"/>
      <rect x="47.447" y="27.908" width="1.68" height="5.038" fill="#4ffa94"/>
      <polygon points="50.811 29.588 54.168 29.588 54.168 34.625 55.848 34.625 55.848 29.588 59.206 29.588 59.206 26.229 50.811 26.229 50.811 29.588" fill="#4ffa94"/>
      <polygon points="60.891 34.625 69.286 34.625 69.286 32.946 64.248 32.946 64.248 31.267 67.606 31.267 67.606 29.588 64.248 29.588 64.248 27.908 69.286 27.908 69.286 26.229 60.891 26.229 60.891 34.625" fill="#4ffa94"/>
      <polygon points="76.008 29.6 77.687 29.6 77.687 31.279 76.008 31.279 76.008 32.958 77.687 32.958 77.687 34.637 79.366 34.637 79.366 26.241 76.008 26.241 76.008 29.6" fill="#4ffa94"/>
      <rect x="74.328" y="29.6" width="1.68" height="1.68" fill="#4ffa94"/>
      <polygon points="72.649 29.6 74.328 29.6 74.328 27.921 72.649 27.921 72.649 26.241 70.971 26.241 70.971 34.637 74.328 34.637 74.328 31.279 72.649 31.279 72.649 29.6" fill="#4ffa94"/>
      <polygon points="81.051 26.229 81.051 29.588 84.408 29.588 84.408 34.625 86.088 34.625 86.088 29.588 89.446 29.588 89.446 26.229 81.051 26.229" fill="#4ffa94"/>
    </g>
  </g>
</svg>
